<?xml version="1.0" encoding="iso-8859-1"?>
<!-- Generator: Adobe Illustrator 18.1.1, SVG Export Plug-In . SVG Version: 6.00 Build 0)  -->
<svg version="1.1" id="_x31_2" xmlns="http://www.w3.org/2000/svg" xmlns:xlink="http://www.w3.org/1999/xlink" x="0px" y="0px"
	 viewBox="0 0 512 512" style="enable-background:new 0 0 512 512;" xml:space="preserve">
<g>
	<rect x="385.05" y="235.193" style="fill:#3F3F36;" width="14.582" height="1.481"/>
	<rect x="429.119" y="235.193" style="fill:#3F3F36;" width="14.581" height="1.481"/>
	<path style="fill:#3F3F36;" d="M409.555,289.846c1.231,1.231,2.94,1.996,4.82,1.996c1.879,0,3.589-0.765,4.82-1.996
		c1.233-1.233,1.998-2.943,1.998-4.821c0-1.88-0.765-3.59-1.998-4.819c-1.231-1.235-2.941-2-4.82-2c-1.88,0-3.589,0.765-4.82,2
		c-1.233,1.229-1.998,2.939-1.998,4.819C407.558,286.903,408.322,288.613,409.555,289.846z M410.603,281.252
		c0.967-0.965,2.297-1.562,3.772-1.562c1.476,0,2.804,0.597,3.772,1.562c0.965,0.967,1.562,2.298,1.562,3.773
		c0,1.475-0.597,2.804-1.562,3.771c-0.968,0.967-2.296,1.562-3.772,1.562c-1.475,0-2.805-0.595-3.772-1.562
		c-0.966-0.967-1.562-2.296-1.562-3.771C409.041,283.55,409.637,282.219,410.603,281.252z"/>
	<path style="fill:#3F3F36;" d="M414.376,287.953c0.807,0.002,1.543-0.327,2.071-0.856c0.529-0.529,0.858-1.266,0.858-2.072
		c0-0.806-0.329-1.542-0.858-2.07c-0.527-0.529-1.264-0.858-2.071-0.858c-0.807,0-1.544,0.329-2.071,0.858
		c-0.528,0.527-0.858,1.264-0.858,2.07c0,0.806,0.33,1.542,0.858,2.072C412.832,287.626,413.568,287.955,414.376,287.953z
		 M413.353,284.001c0.265-0.262,0.621-0.423,1.023-0.423c0.402,0,0.759,0.161,1.022,0.423c0.263,0.266,0.424,0.621,0.424,1.024
		c0,0.401-0.16,0.758-0.424,1.022c-0.263,0.263-0.62,0.425-1.022,0.425c-0.402,0-0.758-0.161-1.023-0.425
		c-0.261-0.264-0.423-0.621-0.425-1.022C412.93,284.624,413.091,284.267,413.353,284.001z"/>
	<path style="fill:#3F3F36;" d="M419.849,308.318c1.199,1.958,1.804,4.383,1.805,7.22c0,5.873,0,8.601,0,8.601h1.482
		c0,0,0-2.728,0-8.601c0-3.041-0.654-5.756-2.024-7.995c-1.368-2.237-3.455-3.976-6.205-5.072l-0.276-0.111l-0.276,0.111
		c-2.751,1.096-4.836,2.834-6.206,5.072c-1.37,2.24-2.025,4.954-2.024,7.995c0,5.873,0,8.601,0,8.601h1.482c0,0,0-2.728,0-8.601
		c0-2.837,0.606-5.261,1.806-7.22c1.157-1.884,2.865-3.357,5.217-4.355C416.983,304.961,418.692,306.434,419.849,308.318z"/>
	<path style="fill:#3F3F36;" d="M396.871,310.22c1.048,1.712,1.581,3.839,1.581,6.327c0,5.185,0,7.592,0,7.592h1.484
		c0,0,0-2.407,0-7.592c0-2.697-0.581-5.107-1.801-7.1c-1.217-1.993-3.076-3.54-5.518-4.514l-0.276-0.111l-0.276,0.111
		c-2.443,0.974-4.301,2.521-5.519,4.514c-1.22,1.993-1.798,4.403-1.797,7.1c0,5.185,0,7.592,0,7.592h1.482c0,0,0-2.407,0-7.592
		c0-2.488,0.533-4.614,1.581-6.327c1.006-1.636,2.487-2.919,4.53-3.795C394.384,307.301,395.863,308.584,396.871,310.22z"/>
	<path style="fill:#3F3F36;" d="M436.685,304.933l-0.274-0.111l-0.277,0.111c-2.442,0.974-4.301,2.521-5.518,4.514
		c-1.22,1.993-1.799,4.403-1.798,7.1c0,5.185,0,7.592,0,7.592h1.482c0,0,0-2.407,0-7.592c0-2.488,0.532-4.614,1.579-6.327
		c1.007-1.636,2.488-2.919,4.531-3.795c2.041,0.876,3.523,2.159,4.529,3.795c1.048,1.712,1.579,3.839,1.581,6.327
		c0,5.185,0,7.592,0,7.592h1.482c0,0,0-2.407,0-7.592c0-2.697-0.579-5.107-1.799-7.1
		C440.987,307.453,439.127,305.906,436.685,304.933z"/>
	<path style="fill:#3F3F36;" d="M48.298,296.889c-0.816,0-1.561,0.333-2.095,0.867c-0.535,0.536-0.868,1.281-0.868,2.096v6.516
		h5.924v-0.741v-5.775c0.001-0.815-0.333-1.56-0.868-2.096C49.859,297.223,49.113,296.889,48.298,296.889z M46.818,299.852
		c0-0.412,0.165-0.776,0.434-1.048c0.27-0.268,0.635-0.431,1.046-0.434c0.411,0.002,0.775,0.165,1.046,0.434
		c0.269,0.272,0.433,0.636,0.434,1.048v5.035h-2.96V299.852z"/>
	<path style="fill:#3F3F36;" d="M38.249,296.889c-0.815,0-1.561,0.333-2.094,0.867c-0.535,0.536-0.868,1.281-0.868,2.096v6.516
		h5.925v-0.741v-5.775c0-0.815-0.333-1.56-0.868-2.096C39.81,297.223,39.064,296.889,38.249,296.889z M36.769,299.852
		c0.001-0.412,0.164-0.776,0.434-1.048c0.27-0.268,0.636-0.431,1.046-0.434c0.411,0.002,0.777,0.165,1.047,0.434
		c0.269,0.272,0.433,0.636,0.434,1.048v5.035h-2.96V299.852z"/>
	<path style="fill:#3F3F36;" d="M60.442,297.756c-0.534-0.534-1.279-0.867-2.095-0.867c-0.816,0-1.561,0.333-2.095,0.867
		c-0.535,0.536-0.868,1.281-0.868,2.096v6.516h5.925v-0.741v-5.775C61.31,299.037,60.977,298.292,60.442,297.756z M56.868,299.852
		c0-0.412,0.164-0.776,0.433-1.048c0.271-0.268,0.636-0.431,1.047-0.434c0.411,0.002,0.776,0.165,1.046,0.434
		c0.269,0.272,0.433,0.636,0.433,1.048v5.035h-2.959V299.852z"/>
	<rect x="47.626" y="268.204" style="fill:#3F3F36;" width="1.482" height="5.473"/>
	<rect x="43.669" y="268.204" style="fill:#3F3F36;" width="1.482" height="5.473"/>
	<rect x="40.4" y="268.204" style="fill:#3F3F36;" width="1.483" height="5.473"/>
	<rect x="51.582" y="268.204" style="fill:#3F3F36;" width="1.482" height="5.473"/>
	<rect x="54.851" y="268.204" style="fill:#3F3F36;" width="1.483" height="5.473"/>
	<rect x="47.641" y="284.574" style="fill:#3F3F36;" width="1.483" height="5.806"/>
	<rect x="73.547" y="310.503" style="fill:#3F3F36;" width="1.482" height="5.808"/>
	<rect x="21.567" y="310.503" style="fill:#3F3F36;" width="1.482" height="5.808"/>
	<path style="fill:#3F3F36;" d="M140.9,280.69c-0.409,0-0.741,0.333-0.741,0.743v2.183c0,0.41,0.332,0.743,0.741,0.743
		c0.41,0,0.741-0.333,0.741-0.743v-2.183C141.642,281.023,141.31,280.69,140.9,280.69z"/>
	<path style="fill:#3F3F36;" d="M147.395,280.69c-0.409,0-0.741,0.333-0.741,0.743v2.183c0,0.41,0.332,0.743,0.741,0.743
		c0.409,0,0.741-0.333,0.741-0.743v-2.183C148.136,281.023,147.805,280.69,147.395,280.69z"/>
	<path style="fill:#3F3F36;" d="M153.889,280.69c-0.408,0-0.741,0.333-0.741,0.743v2.183c0,0.41,0.332,0.743,0.741,0.743
		c0.41,0,0.741-0.333,0.741-0.743v-2.183C154.631,281.023,154.299,280.69,153.889,280.69z"/>
	<path style="fill:#3F3F36;" d="M160.385,280.69c-0.41,0-0.741,0.333-0.741,0.743v2.183c0,0.41,0.332,0.743,0.741,0.743
		s0.741-0.333,0.741-0.743v-2.183C161.126,281.023,160.794,280.69,160.385,280.69z"/>
	<path style="fill:#3F3F36;" d="M166.88,280.69c-0.41,0-0.741,0.333-0.741,0.743v2.183c0,0.41,0.331,0.743,0.741,0.743
		c0.41,0,0.741-0.333,0.741-0.743v-2.183C167.621,281.023,167.289,280.69,166.88,280.69z"/>
	<path style="fill:#3F3F36;" d="M173.374,280.69c-0.41,0-0.741,0.333-0.741,0.743v2.183c0,0.41,0.331,0.743,0.741,0.743
		c0.41,0,0.741-0.333,0.741-0.743v-2.183C174.115,281.023,173.783,280.69,173.374,280.69z"/>
	<path style="fill:#3F3F36;" d="M179.869,280.69c-0.409,0-0.741,0.333-0.741,0.743v2.183c0,0.41,0.332,0.743,0.741,0.743
		c0.41,0,0.741-0.333,0.741-0.743v-2.183C180.61,281.023,180.279,280.69,179.869,280.69z"/>
	<path style="fill:#3F3F36;" d="M140.9,290.123c0.41,0,0.741-0.333,0.741-0.741v-0.192c0-0.41-0.332-0.741-0.741-0.741
		c-0.409,0-0.741,0.331-0.741,0.741v0.192C140.159,289.789,140.491,290.123,140.9,290.123z"/>
	<path style="fill:#3F3F36;" d="M147.395,290.123c0.409,0,0.741-0.333,0.741-0.741v-0.192c0-0.41-0.332-0.741-0.741-0.741
		c-0.409,0-0.741,0.331-0.741,0.741v0.192C146.654,289.789,146.986,290.123,147.395,290.123z"/>
	<path style="fill:#3F3F36;" d="M153.889,290.123c0.41,0,0.741-0.333,0.741-0.741v-0.192c0-0.41-0.331-0.741-0.741-0.741
		c-0.408,0-0.741,0.331-0.741,0.741v0.192C153.149,289.789,153.481,290.123,153.889,290.123z"/>
	<path style="fill:#3F3F36;" d="M160.385,290.123c0.41,0,0.741-0.333,0.741-0.741v-0.192c0-0.41-0.332-0.741-0.741-0.741
		s-0.741,0.331-0.741,0.741v0.192C159.643,289.789,159.975,290.123,160.385,290.123z"/>
	<path style="fill:#3F3F36;" d="M166.88,290.123c0.41,0,0.741-0.333,0.741-0.741v-0.192c0-0.41-0.332-0.741-0.741-0.741
		c-0.41,0-0.741,0.331-0.741,0.741v0.192C166.138,289.789,166.469,290.123,166.88,290.123z"/>
	<path style="fill:#3F3F36;" d="M173.374,290.123c0.41,0,0.741-0.333,0.741-0.741v-0.192c0-0.41-0.331-0.741-0.741-0.741
		c-0.41,0-0.741,0.331-0.741,0.741v0.192C172.633,289.789,172.964,290.123,173.374,290.123z"/>
	<path style="fill:#3F3F36;" d="M179.869,290.123c0.41,0,0.741-0.333,0.741-0.741v-0.192c0-0.41-0.332-0.741-0.741-0.741
		c-0.409,0-0.741,0.331-0.741,0.741v0.192C179.128,289.789,179.46,290.123,179.869,290.123z"/>
	<path style="fill:#3F3F36;" d="M138.888,301.478h8.683v-0.741v-5.823h-8.683V301.478z M140.37,296.397h5.718v3.599h-5.718V296.397z
		"/>
	<path style="fill:#3F3F36;" d="M181.881,300.737v-5.823h-8.683v6.564h8.683V300.737z M174.68,296.397h5.718v3.599h-5.718V296.397z"
		/>
	<path style="fill:#3F3F36;" d="M269.775,295.229h8.478l-0.373-0.998c-1.461-3.917-2.612-7.751-3.144-11.082l-0.101-0.623h-4.861
		h-4.862l-0.1,0.623c-0.532,3.331-1.683,7.165-3.143,11.082l-0.373,0.998h1.067H269.775z M266.171,284.008h3.604h3.604
		c0.541,3.024,1.523,6.346,2.746,9.743h-6.35h-6.351C264.648,290.354,265.631,287.031,266.171,284.008z"/>
	<path style="fill:#3F3F36;" d="M501.107,324.141V287.09h-0.742h-22.677h-0.742v37.051h-12.614v-4.523
		c1.78-0.176,3.381-0.971,4.575-2.165c1.358-1.357,2.201-3.242,2.201-5.313c0-2.074-0.843-3.958-2.201-5.318
		c-1.357-1.357-3.242-2.2-5.316-2.2c-2.073,0-3.956,0.843-5.314,2.2c-1.359,1.359-2.201,3.244-2.201,5.318
		c0,2.072,0.842,3.956,2.201,5.313c1.194,1.194,2.795,1.989,4.573,2.165v4.523h-14.683v-85.548h-23.518v24.304h-20.553v-24.304
		h-23.517v85.548h-2.773l-25.191-28.792l-25.192,28.792h-7.014v-4.595c1.806-0.176,3.429-0.98,4.64-2.194
		c1.376-1.375,2.229-3.281,2.229-5.381c0-2.098-0.853-4.004-2.229-5.379c-1.375-1.377-3.282-2.231-5.381-2.229
		c-2.098-0.002-4.005,0.852-5.381,2.229c-1.375,1.375-2.229,3.281-2.228,5.379c-0.001,2.1,0.853,4.006,2.228,5.381
		c1.211,1.213,2.837,2.017,4.64,2.194v4.595h-5.493l-1.51-5.54h-2.061c-1.34-1.129-2.984-2.891-4.79-5.168
		c-2.849-3.588-6.115-8.455-9.373-14.185c-3.223-5.664-6.441-12.176-9.259-19.139l0.565-6.583l-2.02-0.005v-0.046h-0.378
		c-0.703-1.919-1.373-3.865-1.998-5.828c-1.347-4.233-2.455-8.366-3.372-12.954l0.001-0.161l1.551-3.712l-2.212-0.004
		c-3.183-17.871-3.626-36.116-3.644-42.321l2.536-1.449v-2.908h-1.813v-5.126l-3.818-2.176v-10.459h-2.07h-2.071v10.459
		l-3.818,2.176v5.126h-1.811v2.908l2.536,1.449c-0.019,6.2-0.459,24.43-3.638,42.292l-2.215-0.002l1.545,3.73l0.008,0.166
		c-0.918,4.59-2.028,8.729-3.376,12.967c-0.625,1.963-1.293,3.906-1.997,5.825l-2.394-0.004l0.554,6.655
		c-3.763,9.294-8.239,17.784-12.485,24.533c-2.146,3.409-4.233,6.374-6.134,8.769c-1.809,2.281-3.454,4.046-4.794,5.174h-2.06
		l-1.511,5.54h-9.548v-4.852c1.895-0.177,3.602-1.017,4.872-2.29c1.436-1.436,2.326-3.425,2.326-5.614
		c0-2.191-0.89-4.181-2.326-5.616c-1.435-1.434-3.424-2.325-5.614-2.325c-1.609,0-3.11,0.481-4.362,1.307v-6.165
		c0-1.782-0.724-3.401-1.893-4.566c-1.166-1.17-2.785-1.893-4.567-1.893c-1.781,0-3.401,0.723-4.567,1.893
		c-1.168,1.166-1.893,2.784-1.892,4.566v13.978c-0.001,1.782,0.724,3.401,1.892,4.566c0.96,0.961,2.225,1.621,3.635,1.826v5.185
		h-17.633v-32.535l2.89-5.588h-2.89v-11.86h-52.1v0.741v11.119h-2.891l2.891,5.588v32.535h-9.246v-31.766h-0.742h-19.444h-0.741
		v31.766h-8.246v-4.595c1.804-0.176,3.428-0.98,4.639-2.194c1.376-1.375,2.229-3.281,2.229-5.381c0-2.098-0.853-4.004-2.229-5.379
		c-1.375-1.377-3.282-2.231-5.381-2.229c-2.099-0.002-4.005,0.852-5.38,2.229c-1.376,1.375-2.229,3.281-2.229,5.379
		c0,2.1,0.853,4.006,2.229,5.381c1.211,1.213,2.835,2.017,4.639,2.194v4.595H83.522v-21.527h-3.87V283.65h-4.611v0.741h-0.742v2.355
		h-3.378v-7.934l0,0v-3.159c0.001-1.749-0.711-3.34-1.859-4.486c-0.62-0.621-1.37-1.113-2.205-1.434v-3.993v-0.867
		c0-0.63-0.257-1.205-0.668-1.617c-0.241-0.242-0.541-0.427-0.873-0.54v-2.338h1.038v-1.484h-1.038v-1.037h-1.483v1.037h-1.038
		v1.484h1.038v2.338c-0.332,0.113-0.632,0.298-0.873,0.54c-0.412,0.412-0.669,0.987-0.669,1.617v0.867v3.993
		c-0.835,0.32-1.584,0.813-2.204,1.434c-0.131,0.131-0.257,0.268-0.377,0.412v-4.207v-6.011c0.001-3.15-1.278-6.008-3.342-8.069
		c-1.297-1.299-2.908-2.286-4.708-2.841v-8.148h0v-1.475c0.001-0.926-0.377-1.771-0.984-2.379c-0.439-0.44-1.005-0.756-1.636-0.897
		v-2.298h1.038v-1.481h-1.038v-1.039h-1.482v1.039h-1.038v1.481h1.038v2.298c-0.63,0.142-1.196,0.458-1.636,0.897
		c-0.607,0.608-0.986,1.453-0.985,2.379v1.475v8.148c-1.8,0.555-3.412,1.542-4.709,2.841c-2.064,2.061-3.344,4.919-3.343,8.069
		v6.011l0,0v4.207c-0.119-0.144-0.246-0.281-0.376-0.412c-0.619-0.621-1.37-1.113-2.204-1.434v-3.993v-0.867
		c0-0.63-0.257-1.205-0.669-1.617c-0.241-0.242-0.54-0.427-0.873-0.54v-2.338H33.8v-1.484h-1.039v-1.037H31.28v1.037h-1.037v1.484
		h1.037v2.338c-0.333,0.113-0.632,0.298-0.873,0.54c-0.412,0.412-0.67,0.987-0.67,1.617v0.867v3.993
		c-0.834,0.32-1.585,0.813-2.204,1.434c-1.148,1.146-1.859,2.736-1.859,4.486v3.159l0,0v7.934h-3.377v-2.355h-0.741v-0.741h-4.612
		v18.964h-3.87v21.527H0v1.481h13.074h16.003h1.482h35.478h0.741h0.742h16.003h20.64h20.927h9.246h16.656h0.741h2.487h12.332h2.486
		h0.742h16.656h39.272h0.971h22.997h40.2h23.966h12.287h1.634h51.344h1.475h67.588h28.779h24.16H512v-1.481H501.107z
		 M459.327,316.403c-1.094-1.092-1.767-2.595-1.767-4.263c0-1.669,0.673-3.174,1.767-4.268c1.094-1.091,2.597-1.767,4.266-1.767
		c1.669,0,3.173,0.675,4.268,1.767c1.091,1.094,1.767,2.599,1.767,4.268c0,1.669-0.675,3.172-1.767,4.263
		c-0.93,0.93-2.155,1.553-3.527,1.723v-3.73h-1.482v3.73C461.481,317.956,460.256,317.333,459.327,316.403z M315.339,316.305
		c-1.111-1.111-1.795-2.638-1.795-4.333c0-1.693,0.684-3.22,1.795-4.331c1.111-1.109,2.637-1.793,4.331-1.793
		c1.695,0,3.222,0.684,4.333,1.793c1.109,1.111,1.793,2.638,1.793,4.331c0,1.695-0.684,3.222-1.793,4.333
		c-0.948,0.945-2.196,1.579-3.592,1.747v-3.791h-1.482v3.791C317.533,317.884,316.285,317.25,315.339,316.305z M90.842,316.305
		c-1.11-1.111-1.794-2.638-1.794-4.333c0-1.693,0.685-3.22,1.794-4.331c1.111-1.109,2.638-1.793,4.332-1.793
		c1.694,0,3.222,0.684,4.332,1.793c1.11,1.111,1.795,2.638,1.795,4.331c0,1.695-0.684,3.222-1.795,4.333
		c-0.946,0.945-2.195,1.579-3.591,1.747v-3.791h-1.483v3.791C93.037,317.884,91.789,317.25,90.842,316.305z M82.04,320.657H67.52
		v-16.559H82.04V320.657z M30.559,302.615v-5.634l11.934-6.627v-7.067l5.889-4.157l5.829,4.113v6.993l11.826,6.954v10.435H30.559
		V302.615z M38.367,287.696v-8.884v-1.915h19.861v1.915l0,0v8.884v3.183l-2.535-1.49l0.001-6.913l-7.312-5.159l-0.427,0.301
		l-6.944,4.899v6.965l-2.644,1.466V287.696z M78.169,302.615h-2.388v-17.481h2.388V302.615z M74.299,302.615h-6.78v-6.272
		l-2.223-1.307h0.785c0-0.499,0.2-0.943,0.527-1.272c0.328-0.327,0.773-0.525,1.272-0.525c0.499,0,0.944,0.198,1.272,0.525
		c0.327,0.329,0.526,0.773,0.527,1.272c-0.001,0.499-0.2,0.943-0.527,1.272c-0.328,0.325-0.773,0.527-1.272,0.527v1.482
		c0.904,0,1.729-0.368,2.32-0.961c0.593-0.592,0.962-1.416,0.961-2.32c0.001-0.904-0.368-1.728-0.961-2.32
		c-0.591-0.592-1.416-0.963-2.32-0.963c-0.903,0-1.729,0.37-2.32,0.963c-0.505,0.505-0.845,1.179-0.935,1.926l-4.915-2.891v-3.52
		h14.589V302.615z M59.71,286.746v-7.194h9.728v7.194H59.71z M63.775,265.74v-0.867c0-0.224,0.088-0.421,0.235-0.566
		c0.147-0.148,0.342-0.235,0.565-0.235s0.418,0.087,0.566,0.235c0.146,0.146,0.234,0.342,0.234,0.566v0.867v3.621
		c-0.262-0.033-0.53-0.052-0.8-0.052s-0.538,0.019-0.8,0.052V265.74L63.775,265.74z M61.136,272.215
		c0.882-0.88,2.094-1.425,3.439-1.425s2.557,0.545,3.439,1.425c0.881,0.882,1.425,2.096,1.425,3.438v2.418H59.71v-2.418
		C59.712,274.311,60.254,273.097,61.136,272.215z M46.419,243.046h3.758v3.858h-3.758V243.046z M46.969,239.5
		c0.342-0.342,0.807-0.551,1.329-0.551c0.521,0,0.986,0.209,1.328,0.551c0.342,0.342,0.55,0.806,0.551,1.329v0.734h-3.758v-0.734
		C46.419,240.306,46.628,239.842,46.969,239.5z M46.419,248.388h3.758v1.717c-0.612-0.102-1.239-0.157-1.879-0.157
		c-0.64,0-1.268,0.055-1.879,0.157V248.388z M41.276,254.338c1.799-1.795,4.277-2.906,7.022-2.906c2.745,0,5.222,1.111,7.022,2.906
		c1.798,1.802,2.908,4.279,2.908,7.024v3.982H38.367v-3.982C38.368,258.617,39.478,256.139,41.276,254.338z M38.367,266.825h19.861
		v0.547l0,0v8.041H38.367v-8.041l0,0V266.825z M31.221,265.74v-0.867c0-0.224,0.088-0.421,0.234-0.566
		c0.148-0.146,0.343-0.235,0.567-0.235c0.223,0,0.418,0.087,0.566,0.235c0.145,0.146,0.233,0.342,0.234,0.566v0.867v3.621
		c-0.263-0.033-0.529-0.052-0.8-0.052c-0.272,0-0.538,0.019-0.801,0.052V265.74z M28.582,272.215
		c0.882-0.88,2.094-1.425,3.439-1.425c1.345,0,2.556,0.545,3.438,1.425c0.882,0.882,1.424,2.096,1.425,3.438v2.418h-9.727v-2.418
		C27.158,274.311,27.701,273.097,28.582,272.215z M27.158,279.552h9.727v7.194h-9.727V279.552z M36.885,288.23v3.542l-4.934,2.741
		c-0.112-0.697-0.44-1.323-0.916-1.797c-0.591-0.592-1.415-0.963-2.32-0.963c-0.903,0-1.728,0.37-2.32,0.963
		c-0.592,0.593-0.961,1.416-0.96,2.32c-0.001,0.904,0.368,1.728,0.96,2.32c0.592,0.592,1.417,0.961,2.32,0.961v-1.482
		c-0.498,0-0.943-0.203-1.271-0.527c-0.327-0.329-0.527-0.773-0.527-1.272c0-0.499,0.2-0.943,0.527-1.272
		c0.328-0.327,0.773-0.525,1.271-0.525c0.499,0,0.944,0.198,1.273,0.525c0.326,0.329,0.526,0.773,0.527,1.272h0.493l-1.931,1.074
		v6.505h-6.78V288.23H36.885z M18.426,285.134h2.387v17.481h-2.387V285.134z M29.077,304.098v16.559H14.556v-16.559H29.077z
		 M14.556,324.141v-2.002h14.521v2.002H14.556z M36.504,314.205c0.001-0.558,0.223-1.057,0.588-1.423
		c0.365-0.364,0.863-0.586,1.42-0.586c0.557,0,1.054,0.222,1.42,0.588c0.365,0.366,0.588,0.863,0.588,1.421v9.936h-4.016V314.205z
		 M51.038,324.141h-4.017v-9.936c0-0.558,0.224-1.057,0.588-1.423c0.366-0.364,0.863-0.586,1.42-0.586
		c0.557,0,1.054,0.222,1.42,0.586c0.364,0.366,0.588,0.865,0.588,1.423V324.141z M57.539,314.205c0-0.558,0.224-1.057,0.588-1.423
		c0.366-0.364,0.863-0.586,1.42-0.586c0.557,0,1.055,0.222,1.42,0.586c0.365,0.366,0.589,0.865,0.589,1.423v9.936h-4.017V314.205z
		 M63.038,324.141v-9.936c0-0.963-0.392-1.841-1.023-2.471c-0.629-0.632-1.506-1.022-2.468-1.022c-0.962,0-1.839,0.39-2.469,1.022
		c-0.63,0.63-1.022,1.508-1.022,2.471v9.936h-3.535v-9.936c0-0.963-0.392-1.841-1.022-2.471c-0.629-0.632-1.507-1.022-2.468-1.022
		c-0.962,0-1.84,0.39-2.469,1.022c-0.631,0.63-1.023,1.508-1.022,2.471v9.936h-3.535v-9.936c0.001-0.963-0.392-1.841-1.022-2.471
		c-0.63-0.632-1.507-1.022-2.469-1.022c-0.961,0-1.839,0.39-2.468,1.022c-0.631,0.63-1.022,1.508-1.022,2.471v9.936h-4.463v-15.032
		h35.478v15.032H63.038z M67.52,324.141v-2.002H82.04v2.002H67.52z M123.606,293.857v6.62h-17.961v-6.62H123.606z M105.645,301.959
		h17.961v22.182h-17.961V301.959z M135.817,305.926h14.432v12.919h-14.432V305.926z M150.301,304.445h-14.483v-12.072h49.135v12.072
		h-14.483c-0.241-2.388-1.312-4.536-2.917-6.139c-1.832-1.832-4.37-2.97-7.167-2.97c-2.796,0-5.335,1.137-7.166,2.97
		C151.612,299.909,150.542,302.057,150.301,304.445z M170.521,305.926h14.432v12.919h-14.432V305.926z M184.952,275.64v1.695
		h-49.135v-1.695H184.952z M135.817,278.818h49.135v7.2h-49.135V278.818z M186.89,287.502l-1.754,3.388h-49.504l-1.753-3.388H186.89
		z M135.817,324.141v-3.813h14.432v3.813H135.817z M154.219,324.141v-17.344c0-1.703,0.688-3.242,1.805-4.359
		c1.118-1.117,2.655-1.806,4.36-1.806c1.705,0,3.242,0.689,4.36,1.806c1.117,1.118,1.805,2.656,1.806,4.359v17.344H154.219z
		 M168.034,324.141v-17.344c0.001-2.109-0.857-4.026-2.241-5.407c-1.382-1.383-3.299-2.242-5.408-2.242
		c-2.109,0-4.027,0.858-5.408,2.242c-1.383,1.381-2.241,3.298-2.24,5.407v17.344h-1.005v-18.668c0-2.392,0.967-4.551,2.535-6.12
		c1.569-1.566,3.726-2.534,6.118-2.534s4.55,0.967,6.119,2.534c1.566,1.569,2.534,3.728,2.534,6.12v18.668H168.034z
		 M170.521,324.141v-3.813h14.432v3.813H170.521z M220.389,306.819c1.17,1.172,1.891,2.78,1.891,4.566
		c0,1.784-0.721,3.394-1.891,4.566c-1.006,1.004-2.337,1.677-3.825,1.847v-4.015h-1.482v4.015c-1.488-0.17-2.819-0.843-3.825-1.847
		c-1.17-1.172-1.891-2.782-1.891-4.566c0-1.786,0.721-3.394,1.891-4.566c1.17-1.17,2.781-1.891,4.566-1.891
		C217.608,304.928,219.217,305.649,220.389,306.819z M201.482,316.082c-0.901-0.902-1.458-2.141-1.458-3.518v-13.978
		c0-1.377,0.557-2.616,1.458-3.521c0.903-0.9,2.142-1.455,3.519-1.457c1.377,0.002,2.617,0.558,3.52,1.457
		c0.901,0.904,1.457,2.144,1.457,3.521v6.566h0.93c-0.246,0.192-0.479,0.397-0.699,0.617c-1.436,1.436-2.326,3.425-2.326,5.616
		c0,1.828,0.622,3.514,1.662,4.858l-0.675-0.549c-0.806,0.993-1.981,1.669-3.319,1.815v-3.725h-1.483v3.669
		C203.068,317.263,202.175,316.775,201.482,316.082z M205.551,318.997c1.759-0.148,3.32-1.002,4.392-2.277
		c0.086,0.094,0.175,0.187,0.265,0.279c1.271,1.272,2.978,2.113,4.874,2.29v4.852h-9.531V318.997z M277.773,254.909
		c0.046,0.229,0.094,0.449,0.14,0.673h-16.275c0.048-0.233,0.097-0.462,0.144-0.699l0.018-0.092l-0.03-0.604l-0.794-1.915h0.616l0,0
		h0.002h0.617l0,0h15.129l0.004,0.026l1.226,0.002l-0.804,1.928l-0.008,0.606L277.773,254.909z M266.086,209.616h7.378
		c0.066,7.078,0.618,24.221,3.608,41.175h-14.593C265.467,233.838,266.018,216.695,266.086,209.616z M274.18,204.14h-8.812V202.1
		h8.812V204.14z M269.186,197.7v-9.838h0.588h0.588v9.838l3.818,2.174v0.743h-8.812v-0.743L269.186,197.7z M263.556,205.623h1.07
		h0.742h8.812h0.742h1.071v0.564l-2.538,1.451v0.429c0,0.022,0,0.043,0.001,0.068h-7.363c0-0.024,0-0.046,0-0.068v-0.429
		l-2.536-1.451V205.623z M258.347,268.098c1.155-3.625,2.137-7.198,2.976-11.032h16.903c0.839,3.834,1.822,7.407,2.976,11.032
		c0.575,1.813,1.189,3.605,1.833,5.379h-26.52C257.157,271.703,257.771,269.908,258.347,268.098z M255.456,274.958L255.456,274.958
		h0.01h0.505h0.001h27.606l0.016,0.046l1.799,0.004l-0.334,3.915h-30.574l-0.332-3.967L255.456,274.958z M235.639,314.348
		c2.914-3.671,6.215-8.599,9.509-14.392c3.29-5.786,6.571-12.435,9.435-19.55h30.381l0.009,0.022
		c3.825,9.492,8.385,18.15,12.721,25.038c2.17,3.442,4.281,6.444,6.222,8.891c1.379,1.734,2.669,3.19,3.843,4.329h-18.847v0.076
		c-0.608-1.255-1.352-2.614-2.251-3.98c-1.634-2.479-3.784-4.978-6.569-6.867c-2.782-1.889-6.211-3.157-10.317-3.157
		c-4.106,0-7.535,1.268-10.318,3.157c-2.089,1.418-3.821,3.176-5.246,5.015c-1.573,2.028-2.773,4.152-3.666,6.028v-0.272H231.79
		C232.965,317.547,234.256,316.089,235.639,314.348z M289.441,324.065c0.009,0.026,0.015,0.05,0.024,0.076h-39.381
		c0.513-1.627,1.79-5.166,4.114-8.654c1.562-2.346,3.589-4.664,6.152-6.387c2.566-1.721,5.655-2.856,9.425-2.858
		c3.799,0.002,6.908,1.155,9.485,2.9c1.931,1.309,3.556,2.956,4.905,4.697c2.026,2.608,3.425,5.427,4.314,7.586
		C288.921,322.507,289.237,323.422,289.441,324.065z M229.951,320.085v0.085h20.044c-0.104,0.237-0.203,0.471-0.294,0.693
		c-0.601,1.46-0.975,2.629-1.167,3.279h-20.885l1.106-4.057H229.951z M291.015,324.141c-0.221-0.75-0.687-2.194-1.461-3.972h19.95
		v-0.085h1.288l1.107,4.057H291.015z M342.775,324.141h-13.381l6.691-7.647L342.775,324.141z M337.071,315.368l7.592-8.677
		l6.969,7.963l-7.595,8.679L337.071,315.368z M352.617,315.78l7.316,8.362h-14.631L352.617,315.78z M353.602,314.653l6.968-7.963
		l7.593,8.677l-6.968,7.965L353.602,314.653z M352.617,297.602l6.969,7.963l-6.969,7.965l-6.968-7.965L352.617,297.602z
		 M362.457,324.141l6.69-7.647l6.691,7.647H362.457z M416.828,316.91c-0.41,0-0.742,0.334-0.742,0.743v6.44
		c0,0.015,0.003,0.03,0.003,0.048h-3.163c0-0.018,0.004-0.033,0.004-0.048v-6.44c0-0.409-0.331-0.743-0.741-0.743
		c-0.408,0-0.741,0.334-0.741,0.743v6.44c0,0.015,0.003,0.03,0.005,0.048h-7.355v-23.309h20.553v23.309h-7.088
		c0.001-0.018,0.005-0.033,0.005-0.048v-6.44C417.568,317.244,417.235,316.91,416.828,316.91z M404.098,299.351v-4.836h20.553v4.836
		H404.098z M402.617,264.379v9.697h-2.061v-9.697H402.617z M399.072,274.076h-2.254v-9.697h2.254V274.076z M395.336,264.379v9.697
		h-2.254v-9.697H395.336z M391.6,274.076h-2.254v-9.697h2.254V274.076z M387.864,274.076h-2.255v-9.697h2.255V274.076z
		 M384.128,274.076h-2.063v-9.697h2.063V274.076z M402.617,275.557v17.476h-2.682c0-0.47,0-1.39,0-3.122
		c0-1.209-0.147-2.355-0.448-3.423c-0.452-1.601-1.257-3.028-2.415-4.207c-1.159-1.178-2.66-2.105-4.484-2.751l-0.248-0.087
		l-0.247,0.087c-1.217,0.431-2.289,0.985-3.212,1.658c-1.386,1.007-2.431,2.283-3.117,3.76c-0.686,1.477-1.015,3.15-1.015,4.963
		c0,1.732,0,2.651,0,3.122h-2.684v-17.476H402.617z M418.854,274.076v-9.697h2.252v9.697H418.854z M417.37,274.076h-2.254v-9.697
		h2.254V274.076z M413.634,274.076h-2.255v-9.697h2.255V274.076z M409.897,274.076h-2.254v-9.697h2.254V274.076z M424.651,275.557
		v17.476h-20.553v-17.476H424.651z M446.686,274.076h-2.062v-9.697h2.062V274.076z M443.14,274.076h-2.253v-9.697h2.253V274.076z
		 M439.405,264.379v9.697h-2.254v-9.697H439.405z M435.668,274.076h-2.254v-9.697h2.254V274.076z M431.931,274.076h-2.253v-9.697
		h2.253V274.076z M428.196,274.076h-2.062v-9.697h2.062V274.076z M446.686,275.557v17.476h-2.683c0-0.47,0-1.39,0-3.122
		c0-1.209-0.146-2.355-0.448-3.423c-0.45-1.601-1.256-3.028-2.415-4.207c-1.157-1.178-2.658-2.105-4.484-2.751l-0.247-0.087
		l-0.247,0.087c-1.217,0.431-2.29,0.985-3.214,1.658c-1.384,1.007-2.43,2.283-3.115,3.76c-0.687,1.477-1.017,3.15-1.016,4.963
		c0,1.732,0,2.651,0,3.122h-2.683v-17.476H446.686z M438.697,288.698c-0.409,0-0.74,0.331-0.74,0.741v3.594h-3.156v-3.594
		c0-0.41-0.332-0.741-0.742-0.741c-0.409,0-0.741,0.331-0.741,0.741v3.594h-3.02c0-0.47,0-1.39,0-3.122
		c0-1.089,0.131-2.098,0.391-3.02c0.391-1.383,1.065-2.571,2.047-3.571c0.929-0.945,2.146-1.723,3.675-2.3
		c0.991,0.372,1.851,0.832,2.584,1.368c1.194,0.867,2.063,1.932,2.646,3.185c0.583,1.253,0.878,2.701,0.878,4.337
		c0,1.732,0,2.651,0,3.122h-3.082v-3.594C439.439,289.029,439.108,288.698,438.697,288.698z M394.955,288.698
		c-0.41,0-0.741,0.331-0.741,0.741v3.594h-3.155v-3.594c0-0.41-0.333-0.741-0.743-0.741c-0.408,0-0.741,0.331-0.741,0.741v3.594
		h-3.346c0-0.47,0-1.39,0-3.122c0-1.089,0.132-2.098,0.392-3.02c0.391-1.383,1.065-2.571,2.046-3.571
		c0.93-0.945,2.146-1.723,3.676-2.3c0.99,0.372,1.851,0.832,2.585,1.368c1.192,0.867,2.061,1.932,2.645,3.185
		c0.584,1.253,0.878,2.701,0.878,4.337c0,1.732,0,2.651,0,3.122h-2.756v-3.594C395.695,289.029,395.365,288.698,394.955,288.698z
		 M402.617,294.515v4.836h-20.552v-4.836H402.617z M426.134,294.515h20.551v4.836h-20.551V294.515z M426.134,240.077h20.551v22.82
		h-6.051v-14.812c0-0.41-0.333-0.743-0.741-0.743c-0.411,0-0.743,0.333-0.743,0.743v14.812h-5.078v-14.812
		c0-0.41-0.332-0.743-0.741-0.743c-0.41,0-0.742,0.333-0.742,0.743v14.812h-6.456V240.077z M424.651,274.076h-2.061v-9.697h2.061
		V274.076z M406.161,264.379v9.697h-2.063v-9.697H406.161z M402.617,240.077v22.82h-6.699v-14.812c0-0.41-0.333-0.743-0.741-0.743
		c-0.411,0-0.743,0.333-0.743,0.743v14.812h-5.079v-14.812c0-0.41-0.331-0.743-0.74-0.743c-0.41,0-0.741,0.333-0.741,0.743v14.812
		h-5.81v-22.82H402.617z M382.064,300.833h20.552v23.309h-6.926c0.002-0.018,0.004-0.033,0.004-0.048v-4.253
		c0-0.409-0.331-0.741-0.741-0.741s-0.741,0.331-0.741,0.741v4.253c0,0.015,0.003,0.03,0.004,0.048h-3.163
		c0.001-0.018,0.005-0.033,0.005-0.048v-4.253c0-0.409-0.333-0.741-0.743-0.741c-0.408,0-0.741,0.331-0.741,0.741v4.253
		c0,0.015,0.004,0.03,0.004,0.048h-7.516V300.833z M439.434,324.141c0.001-0.018,0.004-0.033,0.004-0.048v-4.253
		c0-0.409-0.331-0.741-0.742-0.741c-0.409,0-0.74,0.331-0.74,0.741v4.253c0,0.015,0.002,0.03,0.004,0.048h-3.165
		c0.002-0.018,0.005-0.033,0.005-0.048v-4.253c0-0.409-0.332-0.741-0.742-0.741c-0.409,0-0.741,0.331-0.741,0.741v4.253
		c0,0.015,0.003,0.03,0.004,0.048h-7.189v-23.309h20.551v23.309H439.434z M499.625,288.576v7.965h-21.195v-7.965H499.625z
		 M478.429,298.022h21.195v26.119h-21.195V298.022z"/>
	<path style="fill:#3F3F36;" d="M482.593,309.808h4.723v-0.741v-5.782h-4.723V309.808z M484.075,304.767h1.758v3.56h-1.758V304.767z
		"/>
	<path style="fill:#3F3F36;" d="M490.602,303.286v6.522h4.723v-0.741v-5.782H490.602z M492.085,304.767h1.757v3.56h-1.757V304.767z"
		/>
	<path style="fill:#3F3F36;" d="M482.593,319.954h4.723v-0.739v-5.784h-4.723V319.954z M484.075,314.915h1.758v3.558h-1.758V314.915
		z"/>
	<path style="fill:#3F3F36;" d="M490.602,319.954h4.723v-0.739v-5.784h-4.723V319.954z M492.085,314.915h1.757v3.558h-1.757V314.915
		z"/>
	<path style="fill:#3F3F36;" d="M109.003,312.065h4.261v-0.743v-5.063h-4.261V312.065z M110.486,307.743h1.296v2.839h-1.296V307.743
		z"/>
	<path style="fill:#3F3F36;" d="M115.87,306.259v5.806h4.261v-0.743v-5.063H115.87z M117.352,307.743h1.296v2.839h-1.296V307.743z"
		/>
	<path style="fill:#3F3F36;" d="M109.003,320.762h4.261v-0.741v-5.063h-4.261V320.762z M110.486,316.44h1.296v2.841h-1.296V316.44z"
		/>
	<path style="fill:#3F3F36;" d="M115.87,320.762h4.261v-0.741v-5.063h-4.261V320.762z M117.352,316.44h1.296v2.841h-1.296V316.44z"
		/>
</g>
</svg>
